<?xml version="1.0" encoding="UTF-8" standalone="no"?>
<!-- Created with Inkscape (http://www.inkscape.org/) -->

<svg
   xmlns:dc="http://purl.org/dc/elements/1.1/"
   xmlns:cc="http://creativecommons.org/ns#"
   xmlns:rdf="http://www.w3.org/1999/02/22-rdf-syntax-ns#"
   xmlns:svg="http://www.w3.org/2000/svg"
   xmlns="http://www.w3.org/2000/svg"
   xmlns:sodipodi="http://sodipodi.sourceforge.net/DTD/sodipodi-0.dtd"
   xmlns:inkscape="http://www.inkscape.org/namespaces/inkscape"
   width="210mm"
   height="297mm"
   viewBox="0 0 210 297"
   version="1.1"
   id="svg885"
   inkscape:version="0.92.4 (5da689c313, 2019-01-14)"
   sodipodi:docname="drawing-1.svg">
  <defs
     id="defs879" />
  <sodipodi:namedview
     id="base"
     pagecolor="#ffffff"
     bordercolor="#666666"
     borderopacity="1.0"
     inkscape:pageopacity="0.0"
     inkscape:pageshadow="2"
     inkscape:zoom="0.35"
     inkscape:cx="-87.142857"
     inkscape:cy="560"
     inkscape:document-units="mm"
     inkscape:current-layer="layer1"
     showgrid="false"
     inkscape:window-width="1366"
     inkscape:window-height="705"
     inkscape:window-x="-8"
     inkscape:window-y="-8"
     inkscape:window-maximized="1" />
  <metadata
     id="metadata882">
    <rdf:RDF>
      <cc:Work
         rdf:about="">
        <dc:format>image/svg+xml</dc:format>
        <dc:type
           rdf:resource="http://purl.org/dc/dcmitype/StillImage" />
        <dc:title></dc:title>
      </cc:Work>
    </rdf:RDF>
  </metadata>
  <g
     inkscape:label="Layer 1"
     inkscape:groupmode="layer"
     id="layer1">
    <g
       id="g1441"
       transform="matrix(0.69690992,0,0,0.67415876,-28.940901,15.940019)">
      <path
         style="fill:#cdcdcd;stroke-width:0.26458335"
         d="m -153.32605,227.43138 c -16.44567,-0.83224 -28.49356,-2.25134 -43.39167,-5.11106 -25.98026,-4.98695 -47.75809,-14.65589 -57.90791,-25.71 -2.2803,-2.48346 -5.13968,-6.87062 -6.09854,-9.35702 -1.48378,-3.84757 -2.29345,-9.84134 -1.64341,-12.16575 0.15408,-0.55099 0.28498,-0.37463 0.95233,1.28309 2.7046,6.71838 9.4941,12.65045 20.90899,18.26846 18.56693,9.138 46.28107,15.05746 79.50729,16.98195 7.34638,0.42551 28.89061,0.42238 36.38021,-0.005 32.908239,-1.87909 60.835442,-7.85214 79.375004,-16.97667 11.414882,-5.61801 18.204387,-11.55008 20.908989,-18.26845 0.667348,-1.65773 0.798243,-1.83409 0.952331,-1.2831 0.650036,2.32441 -0.159636,8.31818 -1.643414,12.16575 -0.955273,2.47711 -3.817099,6.87286 -6.072109,9.32674 -6.295737,6.85097 -18.155082,13.71775 -32.402048,18.76139 -10.281079,3.63967 -22.975214,6.7538 -34.839104,8.54675 -15.337079,2.31785 -24.762959,3.16796 -38.053609,3.432 -3.8563,0.0766 -8.38068,0.17665 -10.05417,0.22231 -1.67348,0.0457 -4.76911,-0.004 -6.87916,-0.11111 z m 3.30729,-17.07584 c -49.13273,-1.1015 -90.98351,-12.11314 -106.09961,-27.9166 -2.50192,-2.61568 -3.87168,-4.61232 -5.14871,-7.50503 -0.89764,-2.03331 -0.93447,-2.23963 -0.92142,-5.16069 0.0159,-3.55385 0.47831,-5.16367 2.46726,-8.58917 1.53719,-2.64746 5.80372,-6.99297 9.21809,-9.38872 7.00104,-4.91241 16.62497,-9.30084 28.12085,-12.82288 2.25557,-0.69105 4.19723,-1.34901 4.3148,-1.46213 0.11757,-0.11312 -0.64259,-2.21689 -1.68924,-4.67504 -8.6728,-20.36872 -13.46882,-41.182027 -15.32687,-66.514149 -0.35761,-4.875477 -0.32451,-7.173135 0.1116,-7.748048 0.32904,-0.433752 0.415,-0.374838 1.06066,0.726893 0.79673,1.359514 3.11468,3.388981 5.37243,4.703797 5.37223,3.128547 15.25797,6.119399 26.00037,7.866205 2.68092,0.435941 4.67914,0.716005 13.22916,1.85416 1.09141,0.145286 5.02047,0.503164 8.73125,0.795282 3.71078,0.292122 7.22313,0.588122 7.80521,0.657781 0.58209,0.06966 3.8563,0.305729 7.27604,0.524605 3.41974,0.218877 7.46787,0.521513 8.99584,0.672524 3.57326,0.353152 22.03705,0.357941 25.66458,0.0067 1.52797,-0.147966 4.92125,-0.385188 7.54063,-0.527161 2.61937,-0.141976 5.89359,-0.381865 7.27604,-0.533093 1.38245,-0.151225 5.01385,-0.45733 8.06979,-0.680231 7.46323,-0.544367 15.463919,-1.481145 22.598977,-2.646045 18.009488,-2.940312 29.598936,-7.683473 32.562661,-13.326779 l 0.337159,-0.641993 0.408863,0.774284 c 0.361138,0.683909 0.371422,1.391957 0.0881,6.065954 -0.321807,5.308947 -1.181047,14.267427 -1.590686,16.584587 -0.120446,0.681312 -0.147426,1.349809 -0.05995,1.485545 0.08747,0.135734 1.88545,0.314674 3.995503,0.39764 6.05482,0.238074 9.115742,1.369557 12.31143,4.550979 4.316855,4.297582 6.153698,11.121107 5.875341,21.825773 -0.115361,4.43638 -0.231172,5.53158 -0.82414,7.79368 -2.482951,9.47217 -8.971133,14.9224 -19.868283,16.68987 -3.762465,0.61025 -10.495215,0.47142 -14.623649,-0.30155 -0.836528,-0.15662 -0.876556,-0.12008 -1.64243,1.49936 -0.784304,1.65841 -0.818846,2.10224 -0.163613,2.10224 0.647922,0 9.539018,2.82461 13.256319,4.2114 11.650634,4.34643 19.647967,8.96465 25.254607,14.58381 4.396491,4.4063 6.302727,8.17558 6.551613,12.95479 0.115252,2.21312 0.05054,2.74459 -0.541396,4.44666 -2.455545,7.06069 -9.217295,13.40652 -20.122511,18.88473 -18.666945,9.37731 -48.753516,15.81622 -81.266415,17.39206 -6.18148,0.29961 -19.31348,0.5067 -24.60625,0.38804 z m 91.942712,-88.32699 c 8.414062,-1.27581 13.619932,-5.11345 14.833354,-10.93476 0.20103,-0.96443 0.264083,-2.7608 0.173847,-4.95287 -0.235704,-5.72595 -1.476483,-8.480168 -4.522012,-10.037706 -1.379887,-0.705702 -1.835579,-0.793663 -4.627238,-0.893197 -2.424893,-0.08646 -3.162853,-0.03059 -3.401978,0.257538 -0.167952,0.202366 -0.733404,2.329473 -1.256559,4.726905 -1.131165,5.18369 -3.096149,12.46097 -4.75942,17.62639 -0.661371,2.05394 -1.202495,3.92738 -1.202495,4.1632 0,0.55132 1.337551,0.56382 4.762501,0.0445 z M -133.42788,92.488061 c 1.58009,-1.659361 2.2572,-3.558257 1.83194,-5.13755 -0.42457,-1.576729 -1.68831,-3.403589 -3.04532,-4.402294 -1.26524,-0.931177 -1.67726,-2.063512 -0.75927,-2.086697 0.8238,-0.0208 -1.47887,-1.056748 -3.58938,-1.614826 -3.79354,-1.003112 -9.09188,-0.535808 -12.13582,1.070358 -0.59448,0.31368 -0.81929,0.537584 -0.54668,0.544468 0.31438,0.0079 0.46302,0.224036 0.46302,0.673153 0,0.363802 -0.11602,0.661458 -0.25784,0.661458 -0.14181,0 -0.95639,0.68461 -1.81018,1.521354 -3.10131,3.039417 -3.10142,6.273568 -2.6e-4,9.252779 l 0.88713,0.852254 3.83174,0.07379 c 2.10746,0.04058 6.09393,0.03452 8.85883,-0.01347 l 5.02708,-0.08726 1.24505,-1.30751 z m -39.60963,-20.344538 c -29.05336,-0.751081 -53.31487,-5.683221 -57.96851,-11.784457 -4.40248,-5.771952 7.94342,-11.459634 31.24559,-14.394646 10.56972,-1.331304 13.75681,-1.489268 35.45417,-1.757238 14.35764,-0.177321 14.68475,-0.212061 15.24089,-1.618658 0.92951,-2.350936 0.95181,-2.378387 2.18459,-2.688807 2.05594,-0.517691 5.1964,-0.216807 5.1964,0.497864 0,0.12014 -0.41672,0.764366 -0.92605,1.431616 -0.50932,0.667247 -0.92604,1.326623 -0.92604,1.465275 0,0.138653 0.44649,0.366197 0.99219,0.505654 0.74406,0.19015 34.52897,0.752464 38.43073,0.63964 1.23541,-0.03572 10.167091,0.738074 14.684375,1.272181 16.553588,1.957239 28.08598,5.181216 32.295498,9.028477 2.446944,2.23637 2.566115,4.160229 0.389052,6.280756 -5.470758,5.328685 -21.730228,8.899869 -49.485595,10.868885 -4.8404,0.343387 -55.84371,0.536887 -66.80729,0.253458 z m 13.03921,-19.019536 5.89546,-0.189058 1.07273,-1.072735 1.07274,-1.072735 0.0433,-2.354476 c 0.0238,-1.294964 -0.0531,-2.503305 -0.17079,-2.685206 -0.54499,-0.842066 -14.52259,0.08016 -18.57136,1.225317 -0.43656,0.123478 -1.32953,0.373234 -1.98438,0.555014 -2.4491,0.679849 -4.4611,1.694965 -5.13721,2.591887 -0.45231,0.60003 -0.46658,0.742768 -0.13229,1.323152 0.20609,0.357812 0.97002,0.990047 1.69763,1.404964 l 1.32292,0.754396 4.49791,-0.14573 c 2.47386,-0.08015 7.15088,-0.230809 10.39338,-0.33479 z m 47.60407,0.175374 c 1.05514,-0.458764 2.4381,-1.524466 2.76081,-2.127462 0.64051,-1.196793 -2.65208,-3.087185 -7.18013,-4.122375 -4.49836,-1.028401 -7.4987,-1.330182 -16.68284,-1.678004 -9.30473,-0.352385 -9.23895,-0.360357 -11.86272,1.438053 -3.80504,2.608083 -6.39785,5.293336 -5.74358,5.948339 0.11085,0.110969 8.18015,0.282458 17.93178,0.38109 9.75164,0.09863 17.79838,0.247459 17.88165,0.330729 0.26994,0.269933 2.13476,0.160189 2.89503,-0.17037 z"
         id="path1455"
         inkscape:connector-curvature="0" />
      <path
         style="fill:#b5b5b5;stroke-width:0.26458335"
         d="m -153.85522,222.5127 c -5.21429,-0.28413 -13.93971,-0.92349 -15.61042,-1.14386 -1.0914,-0.14396 -3.71078,-0.4485 -5.82083,-0.67676 -10.20641,-1.10407 -24.71302,-3.94126 -34.52813,-6.75297 -9.30957,-2.6669 -15.48568,-5.005 -23.01875,-8.71426 -7.73055,-3.80649 -12.63432,-7.14253 -16.88902,-11.48963 -1.86868,-1.90928 -5.20369,-6.425 -5.20369,-7.04601 0,-0.65297 1.07529,-0.12755 3.29609,1.61059 15.84313,12.39983 49.57269,21.18848 90.49871,23.58053 7.16005,0.4185 29.3381,0.42167 36.5125,0.005 39.776566,-2.30886 72.429178,-10.5801 89.065316,-22.56115 1.292034,-0.9305 2.723737,-1.95971 3.181567,-2.28713 0.866672,-0.61981 1.547913,-0.773 1.547913,-0.34807 0,0.13598 -0.721876,1.32646 -1.604172,2.64551 -7.989512,11.94446 -30.051143,22.41085 -59.646872,28.29744 -16.561552,3.29409 -35.454442,5.08268 -52.784382,4.99709 -4.14734,-0.0205 -8.19546,-0.0729 -8.99583,-0.11654 z m 60.347051,-16.85895 c 0.06063,-0.0566 1.483223,-0.63772 3.161306,-1.29151 6.755839,-2.63208 11.145441,-5.2375 14.566255,-8.64571 3.006206,-2.99512 3.814696,-4.59741 3.812018,-7.55477 -0.0019,-1.91303 -0.09083,-2.28145 -0.926041,-3.82939 -1.034921,-1.91806 -3.796163,-5.03437 -4.460193,-5.03374 -0.237977,2.2e-4 -0.813707,0.20858 -1.279406,0.46302 -0.465696,0.25443 -3.169296,1.63492 -6.007994,3.06775 -2.838702,1.43282 -5.299988,2.77227 -5.469531,2.97656 -0.169539,0.20428 -0.448228,0.37142 -0.619305,0.37142 -0.171077,0 -1.257826,0.4633 -2.415,1.02956 -3.198855,1.56534 -9.09076,3.39521 -13.61332,4.22794 -0.80037,0.14737 -2.11006,0.38806 -2.91042,0.53487 -17.7845,3.26219 -53.28513,2.99233 -69.98229,-0.53197 -4.28136,-0.90368 -6.17316,-1.40703 -10.05417,-2.6751 -1.55794,-0.50904 -5.94014,-2.59169 -7.84538,-3.72855 -1.70579,-1.01784 -4.27504,-2.46792 -6.15697,-3.47497 -1.00734,-0.53904 -2.48072,-1.4171 -3.2742,-1.95124 -0.79347,-0.53414 -1.80296,-1.1733 -2.24331,-1.42037 l -0.80063,-0.4492 -1.5887,1.24295 c -2.01091,1.57329 -4.04383,3.99796 -4.92425,5.87317 -1.02679,2.18695 -0.96596,4.56239 0.17875,6.97946 1.99558,4.21374 7.83557,8.54737 16.1187,11.96106 3.47235,1.43105 3.74701,1.43367 -3.8838,-0.0369 -25.41661,-4.8982 -45.51999,-13.73597 -53.25857,-23.41331 -2.03458,-2.54429 -3.19719,-4.78836 -3.88824,-7.50501 -0.63027,-2.47773 -0.65597,-3.63032 -0.13572,-6.08608 0.73844,-3.4857 2.39457,-6.33703 5.67518,-9.7709 6.32734,-6.62294 17.45039,-12.4502 33.10686,-17.34437 2.7983,-0.87474 5.21239,-1.71501 5.36465,-1.86726 0.19271,-0.19272 0.0898,-0.65874 -0.33874,-1.53373 -1.22571,-2.50273 -3.95991,-9.05503 -5.40956,-12.96363 -3.43051,-9.24942 -6.64083,-21.61852 -8.62652,-33.23723 -0.44271,-2.590421 -0.93433,-4.951658 -1.0925,-5.24719 -0.15816,-0.295531 -0.23052,-0.910611 -0.16079,-1.366843 0.0697,-0.456231 -0.0248,-1.305761 -0.21011,-1.887844 -0.18529,-0.582083 -0.33632,-1.594115 -0.33564,-2.248958 8e-4,-0.654844 -0.18847,-2.976563 -0.42035,-5.159375 -0.44772,-4.214768 -0.95513,-10.939246 -0.95829,-12.700001 l -0.002,-1.058333 0.99147,1.099534 c 2.0301,2.251366 6.1882,4.749157 11.17793,6.714636 1.52797,0.601874 2.88471,1.19675 3.01499,1.321943 0.13778,0.1324 -0.18959,1.174528 -0.78253,2.491068 -1.01575,2.255319 -1.02295,2.263444 -2.00719,2.263444 -0.54329,0 -1.06117,0.118737 -1.15086,0.263861 -0.0897,0.145124 -0.0303,1.425046 0.13206,2.844271 0.2365,2.067658 0.22079,3.038689 -0.0791,4.886693 l -0.37421,2.306283 0.95413,0.505261 c 0.52477,0.277895 1.43038,0.754428 2.01246,1.058966 2.129,1.113859 16.1523,4.430308 19.31459,4.567815 0.58208,0.02532 2.66567,0.259918 4.6302,0.521348 9.58206,1.275133 19.80494,2.126207 31.8823,2.654263 8.92282,0.390131 34.28153,0.386239 43.25937,-0.0066 25.801446,-1.129089 45.358529,-4.007123 56.317611,-8.287735 l 2.210316,-0.863348 -0.167061,-1.652646 c -0.250682,-2.479403 -1.356191,-6.460554 -2.700388,-9.724432 -0.659244,-1.60073 -1.21888,-3.137422 -1.243637,-3.414874 -0.03349,-0.37537 0.293516,-0.639059 1.277909,-1.030468 6.013116,-2.390905 9.57766,-4.382413 12.095858,-6.757956 l 1.794767,-1.693092 -2.64e-4,0.891945 c -5.3e-4,1.46192 -0.7628,10.955821 -1.169557,14.565185 -0.20792,1.844972 -0.313912,3.599694 -0.235542,3.899384 0.07837,0.299691 -0.05766,1.045134 -0.3023,1.656541 -0.364424,0.910783 -0.386115,1.221282 -0.120055,1.718421 0.265414,0.49593 0.246515,0.788868 -0.103452,1.603552 -0.235503,0.548228 -0.733838,2.842247 -1.107408,5.09782 -0.373571,2.255573 -0.789271,4.458229 -0.923777,4.894792 -0.134509,0.436562 -0.677926,2.756937 -1.207598,5.156388 -1.367446,6.194651 -3.035044,12.403501 -4.737571,17.639091 -0.808249,2.48553 -1.469546,4.79544 -1.469546,5.13314 0,0.50438 -1.080244,3.65766 -3.031287,8.84846 -0.164089,0.43657 -0.627277,1.15094 -1.029308,1.5875 -0.907283,0.98522 -2.297864,3.92384 -2.048058,4.32803 0.101642,0.16446 1.428374,0.64975 2.948292,1.07841 16.968478,4.78557 30.108627,11.40105 36.916769,18.58592 3.159456,3.33428 4.807942,6.20353 5.534451,9.63289 0.52025,2.45576 0.494546,3.60835 -0.135723,6.08608 -1.24741,4.90384 -4.28265,8.88766 -10.211243,13.4025 -7.468132,5.68725 -21.183926,11.41311 -36.61681,15.28622 -8.133136,2.04113 -22.91273,4.78716 -22.202954,4.12528 z m -87.168661,-38.99809 c -3.86034,-6.60139 -8.01283,-14.8476 -10.68769,-21.22411 -2.34676,-5.59437 -4.90349,-14.2875 -4.20209,-14.2875 0.051,0 1.80719,0.88582 3.9026,1.9685 4.79384,2.47692 8.34955,3.99626 13.30752,5.68624 12.29193,4.18982 26.29719,6.15415 39.55208,5.54744 32.52192,-1.48862 60.374886,-16.28628 71.213227,-37.83401 2.102232,-4.17945 3.687832,-9.360666 4.339223,-14.179158 l 0.149767,-1.10786 -2.315575,0.787775 c -10.077408,3.42841 -21.902357,5.608196 -37.769742,6.962389 -23.18372,1.978604 -57.03327,1.981164 -80.69792,0.0061 -5.67087,-0.473289 -15.28698,-1.626253 -16.40417,-1.966844 -0.43656,-0.133093 -3.175,-0.718544 -6.08541,-1.301004 -2.91042,-0.582461 -6.83948,-1.495634 -8.73125,-2.029277 -1.89177,-0.533643 -3.91584,-1.083958 -4.49792,-1.222925 -0.58208,-0.138967 -1.80844,-0.472602 -2.72524,-0.741413 l -1.66691,-0.488744 0.17033,1.237115 c 0.33955,2.466052 1.16892,6.140911 1.84266,8.164646 0.8533,2.56307 3.17193,7.44035 4.73579,9.9618 1.08102,1.74296 1.61149,2.95515 4.12962,9.43672 4.96098,12.76933 12.29846,25.6893 20.21018,35.58645 4.99766,6.25182 13.65818,15.25141 13.84791,14.39009 0.0517,-0.23463 -0.67596,-1.74322 -1.61699,-3.35243 z m 49.97265,-68.97272 c 26.43018,-0.363633 49.159584,-3.155347 62.77304,-7.710032 2.660427,-0.890106 4.828008,-1.824371 4.828008,-2.080956 0,-0.06284 -0.565547,0.06907 -1.256771,0.293137 -13.926519,4.514456 -26.759946,6.530139 -50.601567,7.947737 -11.24604,0.668679 -45.89954,0.668832 -57.15,2.51e-4 -11.5269,-0.685006 -23.40932,-1.799103 -26.99981,-2.531504 -0.64807,-0.132194 -3.38097,-0.676249 -6.07311,-1.209008 -5.24999,-1.038945 -8.62366,-1.837759 -12.83229,-3.038409 -3.66777,-1.046353 -6.06564,-1.605217 -5.78914,-1.349254 0.85026,0.787099 4.98469,2.527994 7.90581,3.328914 4.35701,1.194617 13.17976,2.880855 17.99166,3.438633 10.07879,1.1683 12.8108,1.455547 17.33021,1.82213 2.69214,0.218369 7.27605,0.532752 10.18646,0.698635 5.42617,0.309266 25.09564,0.725628 28.17813,0.596472 0.94588,-0.03963 6.1251,-0.132668 11.50937,-0.206746 z m -31.22083,-25.834536 c -25.4077,-0.559051 -45.41269,-2.810777 -57.48073,-6.46993 -1.71581,-0.520253 -2.18281,-0.767284 -2.18281,-1.154642 0,-0.354359 -0.62733,-0.80355 -2.23323,-1.599076 -3.62815,-1.797298 -3.55509,-1.928733 0.9504,-1.709692 l 3.83932,0.186655 2.70476,-0.961861 c 9.5638,-3.401057 24.17495,-5.406255 45.93562,-6.304084 10.59967,-0.437335 43.23506,-0.436425 53.84271,0.0016 21.991633,0.907907 38.006141,3.16865 46.490757,6.563032 1.722183,0.68898 1.838222,0.699492 5.724528,0.518522 4.63015,-0.215606 4.719008,-0.08718 1.148686,1.660263 -1.377591,0.674238 -2.263482,1.2821 -2.431675,1.66851 -0.214452,0.492694 -0.83762,0.772684 -3.289072,1.477791 -17.133399,4.92796 -49.750354,7.074977 -93.019264,6.122924 z"
         id="path1453"
         inkscape:connector-curvature="0" />
      <path
         style="fill:#896c53;stroke-width:0.26458335"
         d="m -149.22501,218.81392 c -9.9373,-0.19112 -22.50151,-1.14747 -32.59386,-2.48097 -33.24149,-4.39216 -59.85349,-14.49422 -69.99644,-26.57102 -1.63214,-1.94333 -1.78298,-2.49148 -0.39874,-1.44909 5.0265,3.7852 13.08512,8.03792 20.43904,10.78614 18.98828,7.09609 42.84698,11.48649 70.90833,13.04833 7.53813,0.41956 28.78304,0.41681 36.24792,-0.005 33.877604,-1.91288 62.325986,-8.09706 81.05274,-17.61946 3.012572,-1.53186 7.539477,-4.33479 10.030048,-6.21032 1.384236,-1.04239 1.233402,-0.49424 -0.398743,1.44909 -14.934368,17.78174 -63.604114,30.04602 -115.290295,29.05198 z m -6.37285,-27.86966 c -21.64825,-1.33885 -35.10153,-5.65598 -38.70729,-12.42108 -0.726,-1.36213 -0.86566,-1.91435 -0.89688,-3.54644 -0.031,-1.62302 0.081,-2.17418 0.69834,-3.43602 0.40442,-0.82661 0.88697,-1.50292 1.07235,-1.50292 0.18537,0 1.33747,0.63601 2.56023,1.41335 1.22275,0.77734 3.35428,2.13123 4.73672,3.00864 14.04213,8.9122 31.45204,13.08737 48.94792,11.73849 14.89233,-1.14817 27.02428,-5.42317 39.789048,-14.0207 1.978557,-1.33263 3.416498,-2.13978 3.812016,-2.13978 0.129619,0 0.582017,0.62508 1.005327,1.38906 0.669459,1.20823 0.766731,1.6506 0.747188,3.39811 -0.01675,1.4984 -0.171217,2.31633 -0.607689,3.21796 -3.147232,6.50131 -14.84201,10.79594 -34.42714,12.64253 -3.83383,0.36148 -24.1158,0.54418 -28.73014,0.2588 z m -7.91465,-91.040296 c -7.58475,-0.274172 -14.50469,-0.703599 -21.43125,-1.329947 -6.59243,-0.596133 -15.15942,-1.704687 -16.06453,-2.07872 -0.33232,-0.137335 -2.2711,-0.560935 -4.30839,-0.941337 -4.40492,-0.822487 -9.15485,-1.979062 -12.43542,-3.02794 -1.30968,-0.41874 -2.80557,-0.831913 -3.32419,-0.918159 -1.44922,-0.241009 -7.05428,-3.115609 -8.97893,-4.604915 -1.52729,-1.181822 -3.01297,-2.954731 -2.47603,-2.954731 0.10985,0 0.97978,0.522814 1.93319,1.161806 2.08286,1.395982 5.43148,3.108555 7.88044,4.030274 0.98479,0.370644 1.91477,0.776981 2.06662,0.902967 1.16614,0.967497 14.12221,4.00503 19.14209,4.487834 1.39823,0.134479 3.85192,0.427066 5.45265,0.650189 6.12969,0.854409 15.19896,1.659901 26.06146,2.314665 7.68459,0.463206 45.38751,0.466434 52.91667,0.0045 32.405068,-1.988011 51.075334,-5.812931 60.553376,-12.405384 0.925973,-0.64406 1.814036,-1.127535 1.973477,-1.074388 0.15944,0.05315 -0.286168,0.712485 -0.99024,1.465196 -6.577693,7.032091 -27.256657,12.01383 -57.303283,13.80486 -12.9705,0.773146 -36.79955,1.014506 -50.66771,0.513205 z m -0.99533,-3.703437 c -13.98936,-0.509632 -32.43745,-2.179238 -36.31092,-3.286246 -0.72761,-0.207944 -2.98979,-0.688142 -5.02709,-1.067105 -4.39337,-0.817226 -9.14395,-1.972961 -12.43541,-3.025322 -1.30969,-0.418741 -2.80558,-0.831914 -3.3242,-0.91816 -2.71799,-0.452009 -10.5426,-5.20945 -11.29921,-6.870033 -0.41556,-0.912054 -0.18212,-0.871009 1.38566,0.243644 1.94507,1.38289 4.7173,2.839019 7.54921,3.96526 1.38244,0.549796 2.75166,1.146612 3.0427,1.326258 1.54726,0.955054 13.16187,3.697984 18.38855,4.342681 19.56901,2.413778 28.60897,3.065476 47.55356,3.42818 39.19192,0.750347 70.119698,-1.95602 87.913108,-7.692936 3.763042,-1.21327 8.901449,-3.592441 11.244792,-5.206526 0.873125,-0.601406 1.626166,-0.97808 1.673423,-0.837052 0.303321,0.905185 -3.215947,3.624567 -7.198698,5.562524 -11.560538,5.625208 -32.167546,8.955045 -62.208065,10.052055 -8.08261,0.295159 -32.65628,0.284821 -40.94741,-0.01722 z m 4.77222,-24.610661 c -21.31946,-0.379624 -38.34465,-1.832043 -50.79455,-4.333287 -5.5011,-1.105197 -10.5403,-2.508555 -10.72368,-2.986419 -0.34804,-0.906999 2.52901,-2.818132 6.23018,-4.138501 9.19187,-3.279145 25.11983,-5.335093 46.21949,-5.965923 20.79873,-0.621832 41.72569,-0.530233 58.34063,0.255365 21.475745,1.015429 39.177308,4.44722 43.778774,8.487363 1.566231,1.375169 1.408542,1.525791 -2.8767,2.747764 -8.295329,2.365486 -22.65664,4.304215 -39.182284,5.289484 -6.35379,0.378814 -31.36707,0.973775 -37.17396,0.884211 -1.38245,-0.02133 -7.6005,-0.129347 -13.8179,-0.240057 z"
         id="path1451"
         inkscape:connector-curvature="0" />
      <path
         style="fill:#5f5d5b;stroke-width:0.26458335"
         d="m -149.62189,218.557 c -25.97807,-0.60166 -51.6336,-4.57847 -70.37916,-10.90933 -13.76991,-4.65045 -23.76262,-10.0976 -29.96407,-16.33376 -1.12778,-1.1341 -2.05052,-2.15422 -2.05052,-2.26693 0,-0.1127 1.45852,0.75494 3.24115,1.92809 15.01341,9.88035 42.74759,17.43126 74.67865,20.33199 18.96643,1.72299 42.57311,1.77764 61.1855,0.14166 32.851358,-2.88754 60.393492,-10.31801 75.934813,-20.4861 1.78263,-1.16631 3.241146,-2.04882 3.241146,-1.96113 0,0.0877 -0.505219,0.70852 -1.122709,1.37964 -4.891622,5.31645 -13.503434,10.58792 -24.145,14.77967 -20.918084,8.23971 -49.11177,12.94297 -80.16875,13.37372 -3.92907,0.0545 -8.63203,0.0646 -10.45105,0.0225 z m -0.26458,-29.73408 c -18.94562,-0.51055 -32.51657,-3.25212 -38.55043,-7.78786 -2.48108,-1.86506 -3.51832,-3.68563 -3.51832,-6.17537 0,-1.15981 0.59733,-2.97128 0.97869,-2.96796 0.11656,0.001 1.99787,1.08221 4.18069,2.40265 11.45436,6.92905 21.10333,10.29994 34.13125,11.92384 3.95821,0.49338 15.09569,0.41405 19.31458,-0.13757 12.3555,-1.61551 21.64975,-4.93604 33.09895,-11.82518 1.909909,-1.14922 3.668295,-2.1646 3.907521,-2.2564 1.017222,-0.39035 1.629537,3.36341 0.850889,5.21631 -1.488823,3.54288 -5.87799,6.26601 -13.1584,8.16374 -10.65313,2.77688 -24.15134,3.90419 -41.23542,3.4438 z m -9.39271,-88.917639 c -17.25929,-0.444137 -37.2145,-2.153367 -41.67187,-3.569335 -0.65485,-0.208026 -2.79797,-0.686144 -4.7625,-1.062484 -3.88773,-0.744768 -8.59673,-1.879577 -11.83369,-2.851772 -1.13132,-0.339781 -2.65225,-0.762519 -3.37986,-0.939416 -2.96961,-0.72198 -9.1051,-4.138031 -10.57963,-5.890411 -0.83619,-0.993754 -0.65791,-1.303907 0.33028,-0.574596 1.48078,1.092848 5.035,2.957618 7.47123,3.919879 1.38245,0.546039 2.87073,1.201859 3.30729,1.45738 2.08999,1.223275 16.21363,4.501605 19.39373,4.501605 0.70617,0 2.53177,0.175163 4.05688,0.38925 7.49719,1.052417 18.92886,2.011281 30.52439,2.56032 8.76924,0.415213 37.1119,0.416761 45.77292,0.0024 32.853526,-1.571413 53.480269,-5.525264 63.783033,-12.22629 1.815825,-1.181034 2.10466,-1.26896 1.702986,-0.518422 -0.443251,0.828223 -3.512238,3.025225 -6.033733,4.319382 -15.369012,7.888142 -50.983276,11.694409 -98.081456,10.482416 z m -1.85208,-3.705989 c -12.15257,-0.369734 -22.12886,-1.070221 -31.9871,-2.245974 -3.04082,-0.362667 -6.01738,-0.785805 -6.61458,-0.940306 -0.59721,-0.154503 -3.28848,-0.735718 -5.98061,-1.291592 -5.59386,-1.15502 -9.38346,-2.091399 -12.82,-3.167719 -1.31645,-0.412311 -2.8237,-0.823142 -3.34943,-0.912958 -1.24755,-0.21313 -5.44527,-2.263725 -7.69318,-3.758134 -1.71585,-1.140693 -3.28504,-2.672858 -3.01452,-2.943381 0.0727,-0.07267 0.78982,0.304427 1.59367,0.837991 1.80713,1.199505 5.10006,2.897439 7.00107,3.609959 0.78599,0.294598 2.15521,0.883571 3.04271,1.308825 2.8085,1.345729 16.48746,4.532876 19.47301,4.537139 0.65484,0.0011 2.91703,0.223845 5.02708,0.495353 15.84432,2.038757 29.60486,2.755233 52.91667,2.755233 17.27408,0 23.97214,-0.197858 35.71875,-1.055116 25.384245,-1.852517 42.541086,-5.696694 51.535494,-11.547086 0.913839,-0.594408 1.722406,-1.019863 1.796809,-0.945457 0.271632,0.271632 -1.226071,1.729896 -2.981304,2.902802 -7.138429,4.770133 -19.312581,8.09398 -37.518704,10.243545 -17.091855,2.018001 -42.582435,2.833783 -66.145835,2.116876 z m -5.29167,-25.01812 c -19.48788,-0.448111 -41.0399,-2.885559 -50.95624,-5.762945 -3.72786,-1.081698 -3.80326,-1.122407 -3.35916,-1.813642 0.59888,-0.932175 5.31102,-3.159479 8.67478,-4.100348 8.64995,-2.419448 21.6833,-4.213712 32.5807,-4.485289 l 5.99008,-0.14928 0.17968,0.818073 c 0.28636,1.303798 2.10514,3.884126 3.53372,5.013357 3.64533,2.881461 10.2071,5.264166 17.3211,6.289614 14.18353,2.044483 30.73905,-1.58955 35.92977,-7.886803 0.86157,-1.045231 2.0962,-3.281815 2.0962,-3.797353 0,-0.635849 1.31715,-0.706406 7.24541,-0.38812 16.686822,0.895906 31.595353,3.554748 37.998341,6.776768 1.911181,0.961715 3.367289,2.168654 3.010583,2.495412 -0.669862,0.613624 -7.668639,2.379414 -13.593917,3.429741 -7.068989,1.253064 -17.540042,2.363351 -29.104167,3.086029 -5.12378,0.320201 -12.41181,0.438271 -30.29479,0.490796 -12.95136,0.03804 -25.2148,0.03084 -27.25209,-0.01601 z"
         id="path1449"
         inkscape:connector-curvature="0" />
      <path
         style="fill:#714e31;stroke-width:0.26458335"
         d="m -153.32605,218.03829 c -0.80037,-0.0525 -3.89599,-0.22627 -6.87917,-0.38623 -7.04224,-0.37761 -14.62607,-1.12106 -21.59538,-2.11702 -5.85125,-0.83618 -10.61935,-1.68836 -10.87454,-1.94354 -0.22021,-0.22022 0.64857,-2.30735 1.27097,-3.0533 l 0.53592,-0.6423 6.26953,0.72074 c 8.49784,0.9769 13.88299,1.42212 22.806,1.88549 8.75872,0.45484 28.49953,0.52471 36.65699,0.12973 7.9911,-0.38691 19.96236,-1.33209 22.13218,-1.74741 0.62006,-0.11869 0.78315,7.9e-4 1.24976,0.91539 0.53005,1.03898 1.02516,3.21713 0.73128,3.21713 -0.0834,0 -1.79524,0.24171 -3.80413,0.53714 -5.19859,0.76451 -12.53115,1.52802 -19.13066,1.992 -5.23354,0.36794 -25.96421,0.71536 -29.36875,0.49218 z m 33.86667,-34.27717 c 0.80036,-0.31136 3.00302,-1.16801 4.89479,-1.90366 1.89177,-0.73565 5.74403,-2.51275 8.56057,-3.94911 2.81655,-1.43636 5.18539,-2.54716 5.2641,-2.46844 0.0787,0.0787 -0.14906,0.71113 -0.50616,1.40539 -1.74507,3.39266 -7.09211,5.47636 -18.87476,7.35534 -0.47697,0.0761 -0.21298,-0.0993 0.66146,-0.43952 z m -51.59376,-0.22122 c -5.95985,-1.11672 -10.50848,-2.69255 -12.83229,-4.4456 -1.2717,-0.95935 -2.83242,-3.26956 -2.46027,-3.64172 0.0954,-0.0954 2.11668,0.83978 4.49183,2.07809 4.59357,2.39492 8.47412,4.12198 12.27995,5.46527 1.28604,0.45392 2.39214,0.87918 2.45799,0.94504 0.23539,0.23538 -1.46481,0.0622 -3.93721,-0.40108 z m 8.59896,-83.901776 c -13.83324,-0.506299 -26.92295,-1.573432 -35.71875,-2.911957 -2.56068,-0.389678 -2.77812,-0.472183 -2.77812,-1.054116 0,-0.637275 0.5477,-0.65196 4.42267,-0.118568 16.06965,2.212004 39.46536,3.216434 64.17056,2.754988 35.96646,-0.671788 59.353828,-4.157377 72.635388,-10.82538 3.548283,-1.781413 3.603977,-1.799331 2.451773,-0.788752 -2.921239,2.56217 -11.274423,5.878891 -19.619398,7.790093 -12.220009,2.798675 -27.256613,4.393888 -48.787033,5.175745 -8.10783,0.294431 -28.46358,0.282223 -36.77709,-0.02204 z m -1.05833,-3.704305 c -11.13756,-0.407908 -21.55945,-1.186944 -30.1625,-2.254647 -6.40132,-0.794451 -7.27604,-0.999262 -7.27604,-1.703654 0,-0.633058 0.26483,-0.64085 3.95512,-0.11638 13.50935,1.919983 30.8861,2.84461 53.45946,2.84461 19.64618,0 32.11587,-0.530307 45.77292,-1.946622 17.732632,-1.838973 29.765645,-4.627737 38.364585,-8.891352 3.702659,-1.835891 3.795636,-1.866554 2.665963,-0.879195 -1.368449,1.196052 -5.339342,3.318915 -8.354505,4.466368 -12.538425,4.771628 -31.495509,7.478946 -59.531253,8.501841 -8.11305,0.296007 -30.56963,0.2839 -38.89375,-0.02098 z m -58.95583,-5.150411 c -1.96758,-0.721778 -6.1872,-3.083179 -7.34243,-4.108997 l -1.17049,-1.039374 3.04271,1.575001 c 1.67348,0.866252 3.87614,1.888594 4.89479,2.271872 1.90613,0.717206 2.51354,1.07434 2.51354,1.477867 0,0.326771 -0.75348,0.258204 -1.93812,-0.176369 z m -3.237,-4.987478 c -2.05394,-1.014558 -3.90153,-2.135555 -4.61512,-2.800162 -1.1533,-1.074139 -1.16143,-1.092499 -0.26393,-0.595754 0.50932,0.281895 1.58089,0.873699 2.38125,1.315119 0.80037,0.441418 2.5863,1.247466 3.96875,1.791214 2.57591,1.013161 3.175,1.343234 3.175,1.749263 0,0.57072 -1.47127,0.108469 -4.64595,-1.45968 z m 59.28241,-14.614758 c -19.48788,-0.448111 -41.0399,-2.885559 -50.95624,-5.762945 -3.72786,-1.081698 -3.80326,-1.122407 -3.35916,-1.813642 0.59888,-0.932175 5.31102,-3.159479 8.67478,-4.100348 8.64995,-2.419448 21.6833,-4.213712 32.5807,-4.485289 l 5.99008,-0.14928 0.17968,0.818073 c 0.28636,1.303798 2.10514,3.884126 3.53372,5.013357 3.64533,2.881461 10.2071,5.264166 17.3211,6.289614 14.18353,2.044483 30.73905,-1.58955 35.92977,-7.886803 0.86157,-1.045231 2.0962,-3.281815 2.0962,-3.797353 0,-0.635849 1.31715,-0.706406 7.24541,-0.38812 16.686822,0.895906 31.595353,3.554748 37.998341,6.776768 1.911181,0.961715 3.367289,2.168654 3.010583,2.495412 -0.669862,0.613624 -7.668639,2.379414 -13.593917,3.429741 -7.068989,1.253064 -17.540042,2.363351 -29.104167,3.086029 -5.12378,0.320201 -12.41181,0.438271 -30.29479,0.490796 -12.95136,0.03804 -25.2148,0.03084 -27.25209,-0.01601 z"
         id="path1447"
         inkscape:connector-curvature="0" />
      <path
         style="fill:#572e0a;stroke-width:0.26458335"
         d="m -153.32605,218.03829 c -0.80037,-0.0525 -3.89599,-0.22627 -6.87917,-0.38623 -7.04224,-0.37761 -14.62607,-1.12106 -21.59538,-2.11702 -5.85125,-0.83618 -10.61935,-1.68836 -10.87454,-1.94354 -0.22021,-0.22022 0.64857,-2.30735 1.27097,-3.0533 l 0.53592,-0.6423 6.26953,0.72074 c 8.49784,0.9769 13.88299,1.42212 22.806,1.88549 8.75872,0.45484 28.49953,0.52471 36.65699,0.12973 7.9911,-0.38691 19.96236,-1.33209 22.13218,-1.74741 0.62006,-0.11869 0.78315,7.9e-4 1.24976,0.91539 0.53005,1.03898 1.02516,3.21713 0.73128,3.21713 -0.0834,0 -1.79524,0.24171 -3.80413,0.53714 -5.19859,0.76451 -12.53115,1.52802 -19.13066,1.992 -5.23354,0.36794 -25.96421,0.71536 -29.36875,0.49218 z m 33.86667,-34.27717 c 0.80036,-0.31136 3.00302,-1.16801 4.89479,-1.90366 1.89177,-0.73565 5.74403,-2.51275 8.56057,-3.94911 2.81655,-1.43636 5.18539,-2.54716 5.2641,-2.46844 0.0787,0.0787 -0.14906,0.71113 -0.50616,1.40539 -1.74507,3.39266 -7.09211,5.47636 -18.87476,7.35534 -0.47697,0.0761 -0.21298,-0.0993 0.66146,-0.43952 z m -51.59376,-0.22122 c -5.95985,-1.11672 -10.50848,-2.69255 -12.83229,-4.4456 -1.2717,-0.95935 -2.83242,-3.26956 -2.46027,-3.64172 0.0954,-0.0954 2.11668,0.83978 4.49183,2.07809 4.59357,2.39492 8.47412,4.12198 12.27995,5.46527 1.28604,0.45392 2.39214,0.87918 2.45799,0.94504 0.23539,0.23538 -1.46481,0.0622 -3.93721,-0.40108 z m 8.59896,-83.901776 c -13.83324,-0.506299 -26.92295,-1.573432 -35.71875,-2.911957 -2.56068,-0.389678 -2.77812,-0.472183 -2.77812,-1.054116 0,-0.637275 0.5477,-0.65196 4.42267,-0.118568 16.06965,2.212004 39.46536,3.216434 64.17056,2.754988 35.96646,-0.671788 59.353828,-4.157377 72.635388,-10.82538 3.548283,-1.781413 3.603977,-1.799331 2.451773,-0.788752 -2.921239,2.56217 -11.274423,5.878891 -19.619398,7.790093 -12.220009,2.798675 -27.256613,4.393888 -48.787033,5.175745 -8.10783,0.294431 -28.46358,0.282223 -36.77709,-0.02204 z m -1.05833,-3.704305 c -11.13756,-0.407908 -21.55945,-1.186944 -30.1625,-2.254647 -6.40132,-0.794451 -7.27604,-0.999262 -7.27604,-1.703654 0,-0.633058 0.26483,-0.64085 3.95512,-0.11638 13.50935,1.919983 30.8861,2.84461 53.45946,2.84461 19.64618,0 32.11587,-0.530307 45.77292,-1.946622 17.732632,-1.838973 29.765645,-4.627737 38.364585,-8.891352 3.702659,-1.835891 3.795636,-1.866554 2.665963,-0.879195 -1.368449,1.196052 -5.339342,3.318915 -8.354505,4.466368 -12.538425,4.771628 -31.495509,7.478946 -59.531253,8.501841 -8.11305,0.296007 -30.56963,0.2839 -38.89375,-0.02098 z m -58.95583,-5.150411 c -1.96758,-0.721778 -6.1872,-3.083179 -7.34243,-4.108997 l -1.17049,-1.039374 3.04271,1.575001 c 1.67348,0.866252 3.87614,1.888594 4.89479,2.271872 1.90613,0.717206 2.51354,1.07434 2.51354,1.477867 0,0.326771 -0.75348,0.258204 -1.93812,-0.176369 z m -3.237,-4.987478 c -2.05394,-1.014558 -3.90153,-2.135555 -4.61512,-2.800162 -1.1533,-1.074139 -1.16143,-1.092499 -0.26393,-0.595754 0.50932,0.281895 1.58089,0.873699 2.38125,1.315119 0.80037,0.441418 2.5863,1.247466 3.96875,1.791214 2.57591,1.013161 3.175,1.343234 3.175,1.749263 0,0.57072 -1.47127,0.108469 -4.64595,-1.45968 z m 52.27095,-15.155561 c -17.43069,-0.550052 -35.45329,-2.863678 -45.20371,-5.802958 -2.20034,-0.663297 -2.20702,-0.668004 -1.71979,-1.2129 2.77981,-3.10882 15.17608,-6.247294 30.51934,-7.726849 7.21196,-0.695453 9.525,-0.772658 9.525,-0.317929 0,0.217432 0.29638,1.333548 0.65862,2.480257 1.50546,4.765627 5.07637,8.594495 10.8435,11.626853 l 2.12392,1.116756 -2.24896,-0.04613 c -1.23693,-0.02537 -3.26099,-0.07807 -4.49792,-0.1171 z m 54.49032,-1.006311 c 2.95717,-1.61903 5.53818,-3.55786 7.17663,-5.391025 1.583,-1.771111 3.51451,-5.482786 3.95344,-7.597072 l 0.31331,-1.509225 3.21492,0.177077 c 9.908823,0.545775 21.169467,2.224977 28.627288,4.268939 3.72522,1.020969 7.842681,2.843162 8.809194,3.898532 l 0.619469,0.676421 -2.206969,0.669112 c -10.245284,3.106174 -28.011576,5.311307 -47.318432,5.873115 l -5.42396,0.157832 z"
         id="path1445"
         inkscape:connector-curvature="0" />
      <path
         style="fill:#252525;stroke-width:0.26458335"
         d="m -153.32605,218.03829 c -0.80037,-0.0525 -3.89599,-0.22627 -6.87917,-0.38623 -7.04224,-0.37761 -14.62607,-1.12106 -21.59538,-2.11702 -5.85125,-0.83618 -10.61935,-1.68836 -10.87454,-1.94354 -0.22021,-0.22022 0.64857,-2.30735 1.27097,-3.0533 l 0.53592,-0.6423 6.26953,0.72074 c 8.49784,0.9769 13.88299,1.42212 22.806,1.88549 8.75872,0.45484 28.49953,0.52471 36.65699,0.12973 7.9911,-0.38691 19.96236,-1.33209 22.13218,-1.74741 0.62006,-0.11869 0.78315,7.9e-4 1.24976,0.91539 0.53005,1.03898 1.02516,3.21713 0.73128,3.21713 -0.0834,0 -1.79524,0.24171 -3.80413,0.53714 -5.19859,0.76451 -12.53115,1.52802 -19.13066,1.992 -5.23354,0.36794 -25.96421,0.71536 -29.36875,0.49218 z m 33.86667,-34.27717 c 0.80036,-0.31136 3.00302,-1.16801 4.89479,-1.90366 1.89177,-0.73565 5.74403,-2.51275 8.56057,-3.94911 2.81655,-1.43636 5.18539,-2.54716 5.2641,-2.46844 0.0787,0.0787 -0.14906,0.71113 -0.50616,1.40539 -1.74507,3.39266 -7.09211,5.47636 -18.87476,7.35534 -0.47697,0.0761 -0.21298,-0.0993 0.66146,-0.43952 z m -51.59376,-0.22122 c -5.95985,-1.11672 -10.50848,-2.69255 -12.83229,-4.4456 -1.2717,-0.95935 -2.83242,-3.26956 -2.46027,-3.64172 0.0954,-0.0954 2.11668,0.83978 4.49183,2.07809 4.59357,2.39492 8.47412,4.12198 12.27995,5.46527 1.28604,0.45392 2.39214,0.87918 2.45799,0.94504 0.23539,0.23538 -1.46481,0.0622 -3.93721,-0.40108 z m 8.59896,-83.901776 c -13.83324,-0.506299 -26.92295,-1.573432 -35.71875,-2.911957 -2.56068,-0.389678 -2.77812,-0.472183 -2.77812,-1.054116 0,-0.637275 0.5477,-0.65196 4.42267,-0.118568 16.06965,2.212004 39.46536,3.216434 64.17056,2.754988 35.96646,-0.671788 59.353828,-4.157377 72.635388,-10.82538 3.548283,-1.781413 3.603977,-1.799331 2.451773,-0.788752 -2.921239,2.56217 -11.274423,5.878891 -19.619398,7.790093 -12.220009,2.798675 -27.256613,4.393888 -48.787033,5.175745 -8.10783,0.294431 -28.46358,0.282223 -36.77709,-0.02204 z m -1.05833,-3.704305 c -11.13756,-0.407908 -21.55945,-1.186944 -30.1625,-2.254647 -6.40132,-0.794451 -7.27604,-0.999262 -7.27604,-1.703654 0,-0.633058 0.26483,-0.64085 3.95512,-0.11638 13.50935,1.919983 30.8861,2.84461 53.45946,2.84461 19.64618,0 32.11587,-0.530307 45.77292,-1.946622 17.732632,-1.838973 29.765645,-4.627737 38.364585,-8.891352 3.702659,-1.835891 3.795636,-1.866554 2.665963,-0.879195 -1.368449,1.196052 -5.339342,3.318915 -8.354505,4.466368 -12.538425,4.771628 -31.495509,7.478946 -59.531253,8.501841 -8.11305,0.296007 -30.56963,0.2839 -38.89375,-0.02098 z m -58.95583,-5.150411 c -1.96758,-0.721778 -6.1872,-3.083179 -7.34243,-4.108997 l -1.17049,-1.039374 3.04271,1.575001 c 1.67348,0.866252 3.87614,1.888594 4.89479,2.271872 1.90613,0.717206 2.51354,1.07434 2.51354,1.477867 0,0.326771 -0.75348,0.258204 -1.93812,-0.176369 z m -3.237,-4.987478 c -2.05394,-1.014558 -3.90153,-2.135555 -4.61512,-2.800162 -1.1533,-1.074139 -1.16143,-1.092499 -0.26393,-0.595754 0.50932,0.281895 1.58089,0.873699 2.38125,1.315119 0.80037,0.441418 2.5863,1.247466 3.96875,1.791214 2.57591,1.013161 3.175,1.343234 3.175,1.749263 0,0.57072 -1.47127,0.108469 -4.64595,-1.45968 z"
         id="path1443"
         inkscape:connector-curvature="0" />
    </g>
  </g>
</svg>
